<?xml version="1.0" encoding="UTF-8" standalone="no"?>
<!-- Created with Inkscape (http://www.inkscape.org/) -->

<svg
   width="160mm"
   height="38.000008mm"
   viewBox="0 0 160 38.000008"
   version="1.1"
   id="svg1"
   xmlns="http://www.w3.org/2000/svg"
   xmlns:svg="http://www.w3.org/2000/svg">
  <defs
     id="defs1" />
  <g
     id="layer3"
     transform="translate(239.71251,-165.89355)">
    <ellipse
       style="fill:#53b656;fill-opacity:1;stroke:#53b656;stroke-width:0.696094;stroke-linejoin:round;stroke-opacity:1"
       id="path1-3-2-0-94-3-0"
       cx="-230.06882"
       cy="184.89357"
       rx="2.1519542"
       ry="2.1519532" />
    <ellipse
       style="fill:#53b656;fill-opacity:1;stroke:#53b656;stroke-width:0.696094;stroke-linejoin:round;stroke-opacity:1"
       id="path1-3-2-0-94-3-8-6"
       cx="-89.548317"
       cy="184.89357"
       rx="2.1519542"
       ry="2.1519532" />
    <path
       style="font-weight:600;font-size:20.4695px;font-family:Poppins;-inkscape-font-specification:'Poppins Semi-Bold';fill:#ffffff;stroke:#ffffff;stroke-width:0;stroke-linejoin:round"
       d="m -220.26126,184.89357 c 0,4.27812 3.13183,7.28714 7.2462,7.28714 3.17278,0 5.75193,-1.6785 6.714,-4.62611 h -3.29559 c -0.67549,1.39193 -1.90366,2.06742 -3.43888,2.06742 -2.49727,0 -4.27812,-1.84225 -4.27812,-4.72845 0,-2.90667 1.78085,-4.72846 4.27812,-4.72846 1.53522,0 2.76339,0.6755 3.43888,2.04695 h 3.29559 c -0.96207,-2.92714 -3.54122,-4.6261 -6.714,-4.6261 -4.11437,0 -7.2462,3.02948 -7.2462,7.30761 z m 15.67963,1.45333 c 0,3.54122 2.29258,5.89522 5.15831,5.89522 1.80132,0 3.0909,-0.85972 3.76639,-1.84226 v 1.65803 h 2.8862 v -11.3401 h -2.8862 v 1.61709 c -0.67549,-0.9416 -1.92413,-1.80132 -3.74592,-1.80132 -2.8862,0 -5.17878,2.27212 -5.17878,5.81334 z m 8.9247,0.0409 c 0,2.1493 -1.43286,3.33653 -3.00901,3.33653 -1.53522,0 -2.98855,-1.22817 -2.98855,-3.37747 0,-2.1493 1.45333,-3.29559 2.98855,-3.29559 1.57615,0 3.00901,1.18723 3.00901,3.33653 z m 13.63268,-0.59362 v 6.26367 h 2.86573 v -6.65259 c 0,-3.13183 -1.8832,-4.85127 -4.52376,-4.85127 -1.45334,0 -2.68151,0.61409 -3.41841,1.57615 v -1.41239 h -2.86573 v 11.3401 h 2.86573 v -6.26367 c 0,-1.82178 1.00301,-2.80432 2.55869,-2.80432 1.51474,0 2.51775,0.98254 2.51775,2.80432 z m 6.03849,-7.88075 v 2.80432 h -1.35099 v 2.35399 h 1.35099 v 5.46536 c 0,2.59962 1.45333,3.52075 3.6231,3.52075 h 1.80131 v -2.4154 h -1.33051 c -0.90066,0 -1.2077,-0.32751 -1.2077,-1.08488 v -5.48583 h 2.53821 v -2.35399 h -2.53821 v -2.80432 z m 7.49184,2.80432 v 11.3401 h 2.86573 v -11.3401 z m 1.45334,-1.35099 c 1.003,0 1.76038,-0.7369 1.76038,-1.6785 0,-0.94159 -0.75738,-1.6785 -1.76038,-1.6785 -1.02348,0 -1.76038,0.73691 -1.76038,1.6785 0,0.9416 0.7369,1.6785 1.76038,1.6785 z m 12.17935,6.42742 v 6.26367 h 2.86573 v -6.65259 c 0,-3.13183 -1.8832,-4.85127 -4.52376,-4.85127 -1.45334,0 -2.68151,0.61409 -3.41841,1.57615 v -1.41239 h -2.86573 v 11.3401 h 2.86573 v -6.26367 c 0,-1.82178 1.00301,-2.80432 2.55869,-2.80432 1.51474,0 2.51775,0.98254 2.51775,2.80432 z m 4.85125,0.55268 c 0,3.54122 2.29259,5.89522 5.15832,5.89522 1.80131,0 3.09089,-0.85972 3.76638,-1.84226 v 1.65803 h 2.8862 v -11.3401 h -2.8862 v 1.61709 c -0.67549,-0.9416 -1.92413,-1.80132 -3.74591,-1.80132 -2.8862,0 -5.17879,2.27212 -5.17879,5.81334 z m 8.9247,0.0409 c 0,2.1493 -1.43286,3.33653 -3.00901,3.33653 -1.53521,0 -2.98855,-1.22817 -2.98855,-3.37747 0,-2.1493 1.45334,-3.29559 2.98855,-3.29559 1.57615,0 3.00901,1.18723 3.00901,3.33653 z m 10.03005,5.85428 c 2.76338,0 4.46235,-1.47381 4.46235,-3.41841 -0.0819,-4.15531 -6.36601,-2.86573 -6.36601,-4.93315 0,-0.65502 0.55267,-1.08488 1.61709,-1.08488 1.12582,0 1.82178,0.59361 1.90366,1.4738 h 2.74291 c -0.16375,-2.25164 -1.82178,-3.74592 -4.5647,-3.74592 -2.80432,0 -4.48282,1.51475 -4.48282,3.39794 0,4.15531 6.40696,2.86573 6.40696,4.89221 0,0.65502 -0.61409,1.16676 -1.73991,1.16676 -1.14629,0 -1.9446,-0.65502 -2.04695,-1.51474 h -2.8862 c 0.12282,2.10836 2.10836,3.76639 4.95362,3.76639 z m 8.08546,-0.0409 c 1.003,0 1.73991,-0.7369 1.73991,-1.6785 0,-0.9416 -0.73691,-1.6785 -1.73991,-1.6785 -1.04395,0 -1.78085,0.7369 -1.78085,1.6785 0,0.9416 0.7369,1.6785 1.78085,1.6785 z m 6.91869,-9.84583 v -1.63756 h -2.86573 v 16.74405 h 2.86573 v -7.02104 c 0.69596,0.92113 1.96507,1.80132 3.74592,1.80132 2.90666,0 5.17878,-2.354 5.17878,-5.89522 0,-3.54122 -2.27212,-5.81334 -5.17878,-5.81334 -1.76038,0 -3.07043,0.85972 -3.74592,1.82179 z m 5.99756,3.99155 c 0,2.1493 -1.45333,3.37747 -3.00902,3.37747 -1.53521,0 -2.98854,-1.18723 -2.98854,-3.33653 0,-2.1493 1.45333,-3.33653 2.98854,-3.33653 1.55569,0 3.00902,1.14629 3.00902,3.29559 z m 5.46535,-8.43343 v 2.80432 h -1.35099 v 2.35399 h 1.35099 v 5.46536 c 0,2.59962 1.45333,3.52075 3.6231,3.52075 h 1.801315 v -2.4154 h -1.330515 c -0.90066,0 -1.2077,-0.32751 -1.2077,-1.08488 v -5.48583 h 2.538215 v -2.35399 h -2.538215 v -2.80432 z"
       id="text4"
       aria-label="Cantinas.pt" />
  </g>
</svg>
